<svg width="370" height="350" viewBox="0 0 370 350" fill="none" xmlns="http://www.w3.org/2000/svg">
<mask id="mask0_1_6671" style="mask-type:luminance" maskUnits="userSpaceOnUse" x="0" y="0" width="370" height="370">
<path d="M370 0H0V370H370V0Z" fill="white"/>
</mask>
<g mask="url(#mask0_1_6671)">
<path d="M291.36 175.893L290.095 175.715C290.26 175.361 290.427 175.083 290.574 174.889C290.618 174.835 290.677 174.788 290.721 174.733C290.751 174.71 290.781 174.686 290.811 174.663L290.818 174.648C290.84 174.64 290.84 174.64 290.863 174.631L290.885 174.623C290.931 174.606 290.983 174.612 291.03 174.634C291.076 174.656 291.107 174.67 291.139 174.722C291.17 174.775 291.203 174.826 291.227 174.894C291.252 174.962 291.26 175.022 291.309 175.12L291.302 175.136C291.294 175.151 291.295 175.151 291.295 175.151C291.32 175.256 291.324 175.37 291.342 175.491C291.352 175.59 291.354 175.666 291.373 175.787L291.366 175.802C291.358 175.818 291.359 175.855 291.36 175.893Z" stroke="#2D97BE" stroke-width="1.174" stroke-linecap="round" stroke-linejoin="round"/>
<path d="M288.103 188.983C288.096 188.999 288.081 188.992 288.065 188.984C288.042 188.993 288.027 188.986 288.012 188.979L287.99 188.986C287.951 188.988 287.921 188.973 287.89 188.959C287.859 188.945 287.844 188.938 287.821 188.907L287.806 188.9C287.79 188.893 287.79 188.893 287.775 188.886C287.775 188.886 287.775 188.886 287.759 188.879L287.751 188.857C287.503 188.666 287.345 188.199 287.356 187.212C287.387 187.226 287.425 187.225 287.456 187.239C287.999 187.361 288.518 187.491 289.014 187.592C289.165 187.269 289.307 186.885 289.455 186.448C289.315 186.908 289.173 187.291 289.045 187.606C288.691 188.527 288.383 188.946 288.103 188.983Z" stroke="#2D97BE" stroke-width="1.174" stroke-linecap="round" stroke-linejoin="round"/>
<path d="M289.014 187.592C288.518 187.491 287.999 187.361 287.456 187.239C287.425 187.225 287.387 187.226 287.356 187.212C282.16 186.025 275.906 184.214 273.654 182.095C272.555 181.078 271.566 179.343 270.672 177.203C269.397 174.155 268.349 170.295 267.504 166.567C265.921 159.517 265.117 152.887 265.117 152.887C263.582 151.721 262.244 149.973 261.517 148.398C260.638 146.508 260.592 144.84 262.06 144.662C261.935 143.162 263.464 143.501 263.464 143.501C263.471 143.485 263.478 143.47 263.478 143.47L263.486 143.454C263.863 141.963 265.413 142.855 265.413 142.855L265.404 142.832L265.388 142.787L265.395 142.771L265.189 141.889L263.834 137.848L263.816 137.765C263.584 136.814 264.205 135.605 264.84 136.051C266.211 137.851 267.503 140.983 268.592 144.15C268.604 144.043 268.61 143.952 268.623 143.883C268.799 142.823 269.786 141.991 270.198 142.071C270.824 142.176 271.047 143.946 271.088 145.988L271.081 146.003C271.116 148.379 270.923 151.08 270.853 151.872L277.137 165.028L281.656 174.495L281.869 174.52L290.08 175.708L290.095 175.715L291.36 175.894C291.364 176.008 291.366 176.12 291.37 176.234C291.365 176.325 291.353 176.432 291.363 176.531C291.357 176.584 291.359 176.66 291.353 176.714C291.347 177.048 291.304 177.421 291.269 177.817C291.263 177.871 291.257 177.923 291.251 177.977C291.236 178.251 291.197 178.533 291.152 178.83C291.135 179.028 291.095 179.234 291.071 179.448C290.909 180.477 290.697 181.615 290.433 182.784C290.283 183.426 290.14 184.053 289.981 184.634C289.933 184.817 289.885 185.001 289.829 185.162C289.838 185.185 289.83 185.2 289.823 185.215C289.775 185.399 289.727 185.582 289.671 185.743C289.651 185.827 289.621 185.889 289.608 185.958C289.56 186.141 289.503 186.302 289.455 186.448C289.307 186.885 289.165 187.269 289.014 187.592Z" stroke="#2D97BE" stroke-width="1.174" stroke-linecap="round" stroke-linejoin="round"/>
<path d="M294.062 191.698L288.139 188.906C288.132 188.922 288.117 188.915 288.101 188.907C288.086 188.9 288.086 188.9 288.07 188.893C288.131 188.884 288.199 188.859 288.258 188.812L288.265 188.796C288.341 188.756 288.414 188.678 288.473 188.593C288.539 188.531 288.598 188.446 288.641 188.353C288.699 188.268 288.735 188.192 288.778 188.099C288.872 187.938 288.966 187.737 289.051 187.514C289.201 187.191 289.343 186.808 289.49 186.371C289.539 186.226 289.596 186.064 289.644 185.881C289.657 185.812 289.686 185.75 289.706 185.667C289.763 185.505 289.811 185.321 289.859 185.138L289.88 185.092C289.921 184.924 289.97 184.74 290.018 184.557C290.176 183.975 290.319 183.349 290.469 182.707C290.733 181.537 290.945 180.4 291.107 179.37C291.131 179.157 291.171 178.951 291.188 178.753C291.233 178.456 291.272 178.174 291.287 177.9C291.293 177.846 291.299 177.794 291.305 177.74C291.339 177.344 291.383 176.971 291.389 176.637C291.395 176.583 291.393 176.508 291.399 176.454C291.389 176.356 291.401 176.249 291.406 176.158C291.402 176.044 291.4 175.93 291.397 175.816C291.395 175.778 291.394 175.74 291.401 175.725L291.409 175.709C291.39 175.588 291.388 175.513 291.378 175.415C291.385 175.399 291.377 175.376 291.384 175.361L291.391 175.346C291.365 175.24 291.348 175.157 291.33 175.074C291.33 175.074 291.33 175.074 291.338 175.058L291.345 175.043C291.312 174.953 291.302 174.855 291.263 174.818L291.27 174.802C291.221 174.666 291.165 174.585 291.089 174.549C291.058 174.535 291.004 174.528 290.966 174.53C290.959 174.545 290.944 174.538 290.921 174.546L290.899 174.554C290.876 174.562 290.876 174.562 290.854 174.57L290.888 174.418L290.895 174.402C290.895 174.402 295.567 174.611 295.49 174.713" stroke="#2D97BE" stroke-width="1.174" stroke-linecap="round" stroke-linejoin="round"/>
<path d="M293.879 292.852C293.557 294.244 279.078 293.48 277.838 292.886C276.616 292.309 277.142 290.697 282.285 289.322C284.068 288.846 285.239 288.117 286.019 287.353C287.717 287.659 291.621 287.709 293.862 287.472C293.964 289.577 294.049 292.157 293.879 292.852Z" fill="#2D97BE"/>
<path d="M293.879 292.852C293.557 294.244 279.078 293.48 277.838 292.886C276.616 292.309 277.142 290.697 282.285 289.322C284.068 288.846 285.239 288.117 286.019 287.353C287.717 287.659 291.621 287.709 293.862 287.472C293.964 289.577 294.049 292.157 293.879 292.852Z" stroke="#2D97BE" stroke-width="1.174" stroke-linecap="round" stroke-linejoin="round"/>
<path d="M319.629 292.853C319.323 294.245 304.827 293.481 303.605 292.887C302.383 292.309 302.892 290.697 308.052 289.322C309.784 288.864 310.938 288.151 311.702 287.438C313.484 287.846 317.677 287.846 319.612 287.472C319.731 289.577 319.815 292.157 319.629 292.853Z" fill="#2D97BE"/>
<path d="M319.629 292.853C319.323 294.245 304.827 293.481 303.605 292.887C302.383 292.309 302.892 290.697 308.052 289.322C309.784 288.864 310.938 288.151 311.702 287.438C313.484 287.846 317.677 287.846 319.612 287.472C319.731 289.577 319.815 292.157 319.629 292.853Z" stroke="#2D97BE" stroke-width="1.174" stroke-linecap="round" stroke-linejoin="round"/>
<path d="M324.483 217.639C324.483 217.639 323.975 218.148 323.295 218.488L323.329 217.707C323.703 217.69 324.076 217.657 324.449 217.623L324.483 217.639Z" stroke="#2D97BE" stroke-width="1.174" stroke-linecap="round" stroke-linejoin="round"/>
<path d="M293.998 217.164L293.675 219.711C293.081 218.811 292.877 217.86 292.877 217.86C293.251 217.606 293.624 217.368 293.998 217.164Z" stroke="#2D97BE" stroke-width="1.174" stroke-linecap="round" stroke-linejoin="round"/>
<path d="M323.329 217.707L323.295 218.488L320.63 286.912C320.63 287.2 320.24 287.353 319.612 287.472C317.677 287.845 313.484 287.845 311.702 287.438C311.176 287.319 310.87 287.183 310.87 286.996L310.582 280.495L308.714 237.075L295.525 286.912C295.525 286.929 295.526 286.962 295.509 286.996C295.509 287.2 294.846 287.353 293.862 287.472C291.621 287.709 287.717 287.659 286.019 287.353C285.493 287.251 285.188 287.132 285.188 286.996L293.675 219.727V219.71L293.998 217.164C294.524 216.875 295.033 216.638 295.577 216.451C298.954 215.229 302.62 215.874 307.271 216.655C307.39 216.672 307.526 216.689 307.645 216.723C307.679 216.757 307.696 216.774 307.73 216.807H308.154C308.358 216.841 308.561 216.875 308.765 216.909C309.579 217.045 310.429 217.164 311.312 217.283C312.008 217.385 312.72 217.469 313.467 217.537C313.637 217.555 313.824 217.571 314.01 217.605C314.91 217.69 315.844 217.758 316.828 217.792C318.492 217.876 320.274 217.894 322.175 217.792C322.549 217.774 322.939 217.758 323.329 217.707Z" stroke="#2D97BE" stroke-width="1.174" stroke-linecap="round" stroke-linejoin="round"/>
<path d="M309.527 254.263L308.524 237.941L310.338 230.355L309.527 254.263Z" fill="#2D97BE"/>
<path d="M309.527 254.263L308.524 237.941L310.338 230.355L309.527 254.263Z" stroke="#2D97BE" stroke-width="1.174" stroke-linecap="round" stroke-linejoin="round"/>
<path d="M321.436 224.36L321.25 226.142L320.964 228.89C320.76 230.888 318.973 232.506 316.97 232.506C315.922 232.506 315.031 232.063 314.443 231.359C313.977 230.8 313.704 230.072 313.704 229.268C313.704 229.146 313.709 229.018 313.721 228.89L314.186 224.36H321.436Z" stroke="#2D97BE" stroke-width="1.174" stroke-linecap="round" stroke-linejoin="round"/>
<path d="M304.87 224.358L304.401 228.893C304.194 230.89 302.404 232.508 300.402 232.508C298.401 232.508 296.946 230.89 297.153 228.893L297.622 224.358H304.87Z" stroke="#2D97BE" stroke-width="1.174" stroke-linecap="round" stroke-linejoin="round"/>
<path d="M321.436 224.358L320.967 228.893C320.76 230.89 318.97 232.508 316.969 232.508C314.967 232.508 313.512 230.89 313.719 228.893L314.188 224.358H321.436Z" stroke="#2D97BE" stroke-width="1.174" stroke-linecap="round" stroke-linejoin="round"/>
<path d="M304.87 224.358L304.401 228.893C304.194 230.89 302.404 232.508 300.402 232.508C298.401 232.508 296.946 230.89 297.153 228.893L297.622 224.358H304.87Z" stroke="#2D97BE" stroke-width="1.174" stroke-linecap="round" stroke-linejoin="round"/>
<path d="M329.457 198.101C329.643 200.511 328.252 202.77 326.011 203.669L323.074 204.365L321.53 189.903C321.53 189.903 321.971 189.852 322.65 189.716C322.82 189.682 323.006 189.648 323.21 189.615C323.6 189.529 324.043 189.445 324.501 189.343C324.721 189.292 324.959 189.241 325.197 189.173C325.672 189.054 326.147 188.918 326.605 188.765C326.707 188.731 326.826 188.697 326.945 188.647C327.131 188.579 327.319 188.511 327.488 188.426C327.879 188.274 328.235 188.103 328.523 187.917L329.457 198.101Z" stroke="#2D97BE" stroke-width="1.174" stroke-linecap="round" stroke-linejoin="round"/>
<path d="M315.945 171.809C317.626 171.978 319.238 172.283 320.75 172.793C322.294 173.302 323.923 174.966 325.349 176.986C325.587 177.325 325.808 177.665 326.029 178.005C327.047 179.617 327.912 181.348 328.557 182.876C328.676 183.216 328.796 183.538 328.914 183.844C329.372 185.151 329.61 186.254 329.508 186.848C329.492 186.916 329.491 187.001 329.457 187.069C329.389 187.255 329.253 187.443 329.067 187.595C328.71 187.935 328.15 188.24 327.488 188.511C327.319 188.596 327.131 188.664 326.945 188.732C326.826 188.782 326.707 188.817 326.605 188.851C326.147 189.003 325.672 189.14 325.197 189.259C324.959 189.327 324.721 189.377 324.501 189.428C324.043 189.53 323.6 189.615 323.21 189.699C323.006 189.733 322.82 189.767 322.65 189.801C321.971 189.903 321.53 189.971 321.53 189.971V189.988L324.501 217.724C321.717 217.996 319.171 218.013 316.828 217.877C315.844 217.843 314.91 217.775 314.01 217.69C313.824 217.656 313.637 217.639 313.467 217.623C312.72 217.555 312.008 217.47 311.312 217.368C310.429 217.249 309.579 217.13 308.765 216.994C308.256 216.909 307.763 216.824 307.271 216.74C301.364 215.755 297.053 214.974 292.877 217.945L293.302 191.872" stroke="#2D97BE" stroke-width="1.174" stroke-linecap="round" stroke-linejoin="round"/>
<path d="M294.797 174.941C300.957 172.927 308.978 171.027 315.945 171.724C317.626 171.894 319.238 172.199 320.75 172.708C322.294 173.218 323.923 174.881 325.349 176.901C325.587 177.241 325.808 177.58 326.029 177.919C327.047 179.532 327.912 181.263 328.557 182.791C328.676 183.13 328.796 183.453 328.914 183.758C329.372 185.066 329.61 186.169 329.508 186.763C329.492 186.848 329.458 186.916 329.44 186.984C329.372 187.17 329.236 187.34 329.067 187.51C328.914 187.646 328.727 187.781 328.523 187.917C328.235 188.104 327.879 188.274 327.488 188.427C327.319 188.511 327.131 188.579 326.945 188.647C326.826 188.698 326.707 188.732 326.605 188.766C326.147 188.918 325.672 189.055 325.197 189.173C324.959 189.241 324.721 189.293 324.501 189.343C324.043 189.445 323.6 189.53 323.21 189.615C323.006 189.649 322.82 189.683 322.65 189.717C321.971 189.853 321.53 189.903 321.53 189.903L323.074 204.366L324.484 217.623C324.466 217.623 324.467 217.623 324.45 217.623C324.076 217.657 323.703 217.69 323.329 217.707C322.939 217.758 322.549 217.775 322.175 217.792C320.274 217.894 318.492 217.876 316.828 217.792C315.844 217.758 314.91 217.69 314.01 217.605C313.824 217.572 313.637 217.555 313.467 217.538C312.72 217.47 312.008 217.385 311.312 217.283C310.429 217.165 309.579 217.045 308.765 216.91C308.561 216.876 308.358 216.842 308.154 216.808C307.985 216.774 307.815 216.74 307.645 216.723C307.526 216.689 307.39 216.673 307.271 216.655C302.62 215.874 298.954 215.229 295.577 216.451C295.033 216.638 294.524 216.876 293.998 217.164C293.624 217.368 293.251 217.605 292.877 217.86L293.302 191.787" stroke="#2D97BE" stroke-width="1.174" stroke-linecap="round" stroke-linejoin="round"/>
<path d="M320.865 183.47L321.606 190.263" stroke="#2D97BE" stroke-width="1.174" stroke-linecap="round" stroke-linejoin="round"/>
<path d="M311.787 171.647C309.029 172.689 304.585 173.299 299.373 173.684L299.629 173.315C300.688 171.759 302.26 170.636 304.072 170.123C306.831 169.337 309.605 168.551 310.744 168.841C311.578 169.033 311.787 171.647 311.787 171.647Z" fill="#2D97BE"/>
<path d="M311.787 171.647C309.029 172.689 304.585 173.299 299.373 173.684L299.629 173.315C300.688 171.759 302.26 170.636 304.072 170.123C306.831 169.337 309.605 168.551 310.744 168.841C311.578 169.033 311.787 171.647 311.787 171.647Z" stroke="#2D97BE" stroke-width="1.174" stroke-linecap="round" stroke-linejoin="round"/>
<path d="M310.606 225.816L310.338 230.355" stroke="#2D97BE" stroke-width="1.174" stroke-linecap="round" stroke-linejoin="round"/>
<path d="M265.222 293.636H252.062" stroke="#2D97BE" stroke-width="1.174" stroke-linecap="round" stroke-linejoin="round"/>
<path d="M296.157 293.636H271.785" stroke="#2D97BE" stroke-width="1.174" stroke-linecap="round" stroke-linejoin="round"/>
<path d="M324.491 293.636H300.097" stroke="#2D97BE" stroke-width="1.174" stroke-linecap="round" stroke-linejoin="round"/>
<path d="M301.788 171.41V166.422C301.788 166.422 298.581 167.176 297.961 165.476C297.163 163.286 299.904 155.422 299.904 155.422L308.169 164.88V172.208C305.66 172.923 303.533 172.656 301.788 171.41Z" stroke="#2D97BE" stroke-width="1.174" stroke-linecap="round" stroke-linejoin="round"/>
<path d="M309.173 165.494C308.425 166.105 306.066 165.816 304.657 165.562C304.114 165.46 303.775 164.917 303.945 164.391C304.454 162.846 304.454 162.014 304.199 161.641C304.369 160.843 304.182 160.164 303.724 159.977C303.214 159.773 302.536 160.283 302.094 161.115C302.62 158.807 300.991 158.62 297.885 157.873C295.729 157.363 294.185 152.118 299.616 150.047C305.065 147.959 307.662 153.9 307.662 153.9C314.061 154.63 310.802 164.153 309.173 165.494Z" fill="#2D97BE"/>
<path d="M309.173 165.494C308.425 166.105 306.066 165.816 304.657 165.562C304.114 165.46 303.775 164.917 303.945 164.391C304.454 162.846 304.454 162.014 304.199 161.641C304.369 160.843 304.182 160.164 303.724 159.977C303.214 159.773 302.536 160.283 302.094 161.115C302.62 158.807 300.991 158.62 297.885 157.873C295.729 157.363 294.185 152.118 299.616 150.047C305.065 147.959 307.662 153.9 307.662 153.9C314.061 154.63 310.802 164.153 309.173 165.494Z" stroke="#2D97BE" stroke-width="1.174" stroke-linecap="round" stroke-linejoin="round"/>
<path d="M302.622 165.646C302.422 166.01 302.189 166.293 301.877 166.392" stroke="#2D97BE" stroke-width="1.174" stroke-linecap="round" stroke-linejoin="round"/>
<path d="M301.721 162.745C301.704 162.371 301.772 161.913 301.958 161.455C301.992 161.353 302.044 161.251 302.078 161.166C302.095 161.149 302.094 161.132 302.094 161.115C302.536 160.283 303.214 159.774 303.724 159.977C304.182 160.164 304.369 160.843 304.199 161.641C304.165 161.845 304.114 162.049 304.029 162.269C303.86 162.693 303.639 163.05 303.385 163.305" stroke="#2D97BE" stroke-width="1.174" stroke-linecap="round" stroke-linejoin="round"/>
<path d="M227.015 168.611C225.897 168.611 224.987 169.521 224.987 170.639C224.987 171.624 225.679 172.45 226.598 172.644V208.343H204.364C204.13 208.343 203.94 208.533 203.94 208.767V225.211L194.881 230.475C194.84 230.499 194.816 230.536 194.786 230.57C194.767 230.591 194.74 230.605 194.726 230.63C194.707 230.663 194.706 230.702 194.697 230.738C194.688 230.773 194.67 230.805 194.67 230.841L194.64 241.404C194.639 241.557 194.72 241.697 194.852 241.773L204.17 247.154C204.236 247.191 204.309 247.21 204.383 247.21C204.456 247.21 204.529 247.192 204.594 247.154L204.595 247.153L213.847 241.776C213.977 241.701 214.058 241.561 214.058 241.411L214.088 230.848C214.088 230.847 214.088 230.848 214.088 230.848C214.088 230.847 214.088 230.846 214.088 230.845C214.088 230.801 214.068 230.762 214.055 230.721C214.023 230.622 213.969 230.532 213.876 230.479L204.788 225.232V209.191H227.023C227.257 209.191 227.447 209.001 227.447 208.767V172.64C228.37 172.441 229.064 171.621 229.064 170.639C229.064 169.521 228.145 168.611 227.015 168.611ZM203.982 238.304L203.961 246.052L195.489 241.161L195.516 231.576L203.987 236.468L203.982 238.304ZM212.817 230.848L207.382 234.006L204.412 235.732L196.859 231.371L195.941 230.841L203.94 226.192V230.024C203.711 230.064 203.492 230.125 203.312 230.23C202.729 230.569 202.731 231.119 203.323 231.46C203.911 231.8 204.858 231.799 205.441 231.459C206.025 231.119 206.03 230.569 205.441 230.23C205.254 230.121 205.025 230.06 204.788 230.021V226.212L212.817 230.848Z" fill="#2D97BE"/>
<path d="M249.069 204.869V224.596" stroke="#2D97BE" stroke-width="1.174" stroke-linecap="round" stroke-linejoin="round"/>
<path d="M252.218 230.413L249.069 235.894L245.921 230.413H252.218Z" stroke="#2D97BE" stroke-width="1.174" stroke-linecap="round" stroke-linejoin="round"/>
<path d="M150.323 265.344L144.65 256.15L153.844 250.477L150.323 265.344Z" stroke="#2D97BE" stroke-width="1.174" stroke-linecap="round" stroke-linejoin="round"/>
<path d="M83.9567 166.139C83.651 165.851 83.2955 165.681 82.9219 165.63C81.2583 162.082 77.116 162.439 76.0299 162.676C74.9098 162.897 75.1815 164.849 75.1815 164.849C73.2122 164.849 73.3481 169.059 73.3481 169.059L72.0069 168.617C72.0069 168.617 71.9729 168.041 71.871 166.767C71.8031 165.885 70.5471 165.46 69.427 165.918C69.4609 165.324 69.5795 163.305 69.2738 162.49C68.9175 161.522 67.7974 157.805 71.8883 157.058C71.8883 157.058 74.6381 155.598 79.4589 156.532C84.2797 157.448 85.3485 160.131 86.3841 162.15C87.4363 164.17 86.4687 168.617 83.9567 166.139Z" fill="#2D97BE"/>
<path d="M83.9567 166.139C83.651 165.851 83.2955 165.681 82.9219 165.63C81.2583 162.082 77.116 162.439 76.0299 162.676C74.9098 162.897 75.1815 164.849 75.1815 164.849C73.2122 164.849 73.3481 169.059 73.3481 169.059L72.0069 168.617C72.0069 168.617 71.9729 168.041 71.871 166.767C71.8031 165.885 70.5471 165.46 69.427 165.918C69.4609 165.324 69.5795 163.305 69.2738 162.49C68.9175 161.522 67.7974 157.805 71.8883 157.058C71.8883 157.058 74.6381 155.598 79.4589 156.532C84.2797 157.448 85.3485 160.131 86.3841 162.15C87.4363 164.17 86.4687 168.617 83.9567 166.139Z" stroke="#2D97BE" stroke-width="1.174" stroke-linecap="round" stroke-linejoin="round"/>
<path d="M83.091 165.986C83.091 165.986 82.9385 181.603 75.0456 178.31L74.3497 180.397L73.9248 181.671C73.9248 181.671 76.1152 184.217 72.7881 184.54C69.9025 184.828 67.5936 181.263 67.4578 179.311C67.4411 179.006 67.4751 178.735 67.577 178.531C68.2903 177.071 69.8346 173.49 69.8346 173.49C69.8346 173.49 69.3757 171.503 69.5455 170.79C69.5455 170.79 67.0841 169.008 68.1197 167.09C68.442 166.496 68.9175 166.105 69.427 165.918C70.5471 165.46 71.8031 165.885 71.871 166.767C71.9729 168.041 72.0069 168.617 72.0069 168.617L73.3481 169.059C73.3481 169.059 73.2123 164.85 75.1815 164.85C75.1815 164.85 74.9098 162.897 76.0299 162.676C77.1161 162.439 81.2583 162.082 82.9219 165.63C82.9898 165.749 83.0404 165.868 83.091 165.986Z" stroke="#2D97BE" stroke-width="1.174" stroke-linecap="round" stroke-linejoin="round"/>
<path d="M85.1441 284.46C85.0921 285.067 85.2959 285.891 86.3763 286.732C88.446 288.36 93.0182 292.156 91.6495 293.343C90.2786 294.544 78.555 291.725 77.8829 290.732C77.2759 289.822 79.0247 284.681 79.4156 283.563L85.1441 284.46Z" fill="#2D97BE"/>
<path d="M85.1441 284.46C85.0921 285.067 85.2959 285.891 86.3763 286.732C88.446 288.36 93.0182 292.156 91.6495 293.343C90.2786 294.544 78.555 291.725 77.8829 290.732C77.2759 289.822 79.0247 284.681 79.4156 283.563L85.1441 284.46Z" stroke="#2D97BE" stroke-width="1.174" stroke-linecap="round" stroke-linejoin="round"/>
<path d="M40.4688 250.553H88.1496L86.2143 257.104H40.4688V250.553Z" fill="#2D97BE"/>
<path d="M40.4688 250.553H88.1496L86.2143 257.104H40.4688V250.553Z" stroke="#2D97BE" stroke-width="1.174" stroke-linecap="round" stroke-linejoin="round"/>
<path d="M118.483 250.553V257.104H112.83L111.285 250.553H118.483Z" fill="#2D97BE"/>
<path d="M118.483 250.553V257.104H112.83L111.285 250.553H118.483Z" stroke="#2D97BE" stroke-width="1.174" stroke-linecap="round" stroke-linejoin="round"/>
<path d="M111.353 239.705C111.336 239.739 110.641 240.979 109.521 243.05L107.84 246.122C107.552 246.631 107.263 247.175 106.958 247.735L106.414 248.736L105.514 250.365L105.412 250.552L104.615 252.029L103.953 253.217L102.867 255.22L101.831 257.104L100.066 260.347C93.4793 272.382 86.4695 285.231 86.4695 285.231L78.2876 283.873L86.2144 257.104L88.1497 250.552L88.7271 248.601C52.9455 256.409 48.9557 235.021 48.9557 235.021C48.9557 235.021 48.9557 235.021 48.973 235.021C50.5513 237.822 71.4296 232.339 81.903 229.097H109.385C109.759 229.097 110.097 228.961 110.369 228.723C114.97 231.422 111.676 239.247 111.353 239.705Z" stroke="#2D97BE" stroke-width="1.174" stroke-linecap="round" stroke-linejoin="round"/>
<path d="M83.7364 218.081L83.2659 221.021L82.497 224.82H66.5581C65.8282 224.82 65.1836 225.294 65.0138 225.99L65.0297 225.994L64.2666 228.791L64.182 229.097H81.903C71.4295 232.339 50.5513 237.822 48.973 235.021V235.004C44.5937 230.285 47.9548 204.399 47.9548 204.399V204.28C47.7849 202.362 47.6317 196.778 50.0931 189.784C51.0268 187.137 52.8594 185.116 54.9985 183.588C57.2727 181.942 59.8699 180.856 62.009 180.16C63.7744 179.583 65.6244 179.311 67.4578 179.311C67.5937 181.263 69.9026 184.828 72.7881 184.539C76.1152 184.217 73.9249 181.671 73.9249 181.671L74.3498 180.397C80.8342 182.129 84.0247 184.912 84.8059 186.338C85.8415 188.205 82.8367 205.265 82.8367 205.265C82.1407 208.949 82.8027 213.82 83.7364 218.081Z" stroke="#2D97BE" stroke-width="1.174" stroke-linecap="round" stroke-linejoin="round"/>
<path d="M124.715 290.156C123.568 291.575 111.541 290.746 110.706 289.872C109.96 289.072 110.829 283.722 111.03 282.552L116.82 282.478C116.877 283.093 117.203 283.86 118.414 284.512C120.733 285.769 125.863 288.751 124.715 290.156Z" fill="#2D97BE"/>
<path d="M124.715 290.156C123.568 291.575 111.541 290.746 110.706 289.872C109.96 289.072 110.829 283.722 111.03 282.552L116.82 282.478C116.877 283.093 117.203 283.86 118.414 284.512C120.733 285.769 125.863 288.751 124.715 290.156Z" stroke="#2D97BE" stroke-width="1.174" stroke-linecap="round" stroke-linejoin="round"/>
<path d="M88.5572 203.146L82.8417 205.262L84.8073 186.33C84.8073 186.33 88.5124 195.256 88.5572 203.146Z" fill="#2D97BE"/>
<path d="M88.5572 203.146L82.8417 205.262L84.8073 186.33C84.8073 186.33 88.5124 195.256 88.5572 203.146Z" stroke="#2D97BE" stroke-width="1.174" stroke-linecap="round" stroke-linejoin="round"/>
<path d="M62.59 204.287H47.949C47.7842 202.367 47.6346 196.786 50.0946 189.78C51.0246 187.14 52.8551 185.115 55 183.585C69.3562 182.37 62.59 204.287 62.59 204.287Z" fill="#2D97BE"/>
<path d="M62.59 204.287H47.949C47.7842 202.367 47.6346 196.786 50.0946 189.78C51.0246 187.14 52.8551 185.115 55 183.585C69.3562 182.37 62.59 204.287 62.59 204.287Z" stroke="#2D97BE" stroke-width="1.174" stroke-linecap="round" stroke-linejoin="round"/>
<path d="M83.1877 221.372L82.497 224.82H66.5581C65.8282 224.82 65.1836 225.294 65.0138 225.99L64.9418 226.317C61.038 225.943 57.5824 225.948 55.5113 225.184C49.876 223.096 49.2953 203.924 49.2953 203.924L60.9741 203.839C60.2948 209.034 60.83 213.879 61.424 218.801C61.5938 219.447 78.4687 221.05 83.1877 221.372Z" stroke="#2D97BE" stroke-width="1.174" stroke-linecap="round" stroke-linejoin="round"/>
<path d="M118.907 282.888H108.943L100.066 260.347L101.831 257.104L102.867 255.22L103.953 253.217L104.615 252.029L105.412 250.552L105.514 250.365L106.414 248.736L106.958 247.735L107.84 246.122L109.521 243.05L111.286 250.552L112.831 257.104L118.907 282.888Z" stroke="#2D97BE" stroke-width="1.174" stroke-linecap="round" stroke-linejoin="round"/>
<path d="M114.511 208.185L110.879 227.841C110.811 228.197 110.624 228.503 110.369 228.724C110.097 228.961 109.758 229.097 109.385 229.097H64.182L64.8086 227.256L65.4365 224.685L65.0138 225.99C65.1836 225.295 65.8282 224.82 66.5581 224.82H82.497L83.2659 221.021L83.7364 218.081L85.6716 207.625C85.8075 206.895 86.4521 206.368 87.182 206.368H113.017C113.967 206.368 114.697 207.235 114.511 208.185Z" stroke="#2D97BE" stroke-width="1.174" stroke-linecap="round" stroke-linejoin="round"/>
<path d="M87.8201 203.419L88.2623 206.362" stroke="#2D97BE" stroke-width="1.174" stroke-linecap="round" stroke-linejoin="round"/>
<path d="M101.863 217.725C101.7 219.136 100.577 220.275 99.3623 220.275C98.1475 220.275 97.2897 219.136 97.4531 217.725C97.6149 216.33 98.7387 215.175 99.9534 215.175C101.168 215.175 102.025 216.33 101.863 217.725Z" fill="#2D97BE"/>
<path d="M101.863 217.725C101.7 219.136 100.577 220.275 99.3623 220.275C98.1475 220.275 97.2897 219.136 97.4531 217.725C97.6149 216.33 98.7387 215.175 99.9534 215.175C101.168 215.175 102.025 216.33 101.863 217.725Z" stroke="#2D97BE" stroke-width="1.174" stroke-linecap="round" stroke-linejoin="round"/>
<path d="M101.66 293.636H59.9075" stroke="#2D97BE" stroke-width="1.174" stroke-linecap="round" stroke-linejoin="round"/>
<path d="M101.899 115.866V136.721C101.899 137.995 100.866 139.029 99.5921 139.029H95.5662V146.659L84.0601 139.029H50.9581C49.684 139.029 48.6514 137.995 48.6514 136.721V115.866C48.6514 114.592 49.684 113.56 50.9581 113.56H99.5921C100.866 113.56 101.899 114.592 101.899 115.866Z" stroke="#2D97BE" stroke-width="1.174" stroke-linecap="round" stroke-linejoin="round"/>
<path d="M63.1197 128.053L63.9096 132.667L59.7658 130.488L55.6431 132.667L56.4337 128.053L53.0798 124.785L57.715 124.123L59.7658 119.936L61.8377 124.123L66.4519 124.785L63.1197 128.053Z" stroke="#2D97BE" stroke-width="1.174" stroke-linecap="round" stroke-linejoin="round"/>
<path d="M90.108 119.613C90.108 119.613 96.742 119.613 97.4155 119.613" stroke="#2D97BE" stroke-width="1.174" stroke-linecap="round" stroke-linejoin="round"/>
<path d="M71.9708 119.613C71.9708 119.613 85.4014 119.613 86.765 119.613" stroke="#2D97BE" stroke-width="1.174" stroke-linecap="round" stroke-linejoin="round"/>
<path d="M71.2937 126.384H97.4705" stroke="#2D97BE" stroke-width="1.174" stroke-linecap="round" stroke-linejoin="round"/>
<path d="M71.2937 132.667H84.1331" stroke="#2D97BE" stroke-width="1.174" stroke-linecap="round" stroke-linejoin="round"/>
<path d="M72.822 107.425V86.9268H107.796" stroke="#2D97BE" stroke-width="1.174" stroke-linecap="round" stroke-linejoin="round"/>
<path d="M109.976 86.9346C109.976 87.5345 109.484 88.0107 108.884 88.0107C108.284 88.0107 107.792 87.5345 107.792 86.9346C107.792 86.3197 108.284 85.8428 108.884 85.8428C109.484 85.8428 109.976 86.3197 109.976 86.9346Z" fill="#2D97BE"/>
<path d="M109.976 86.9346C109.976 87.5345 109.484 88.0107 108.884 88.0107C108.284 88.0107 107.792 87.5345 107.792 86.9346C107.792 86.3197 108.284 85.8428 108.884 85.8428C109.484 85.8428 109.976 86.3197 109.976 86.9346Z" stroke="#2D97BE" stroke-width="1.16161" stroke-linecap="round" stroke-linejoin="round"/>
<path d="M73.9139 107.938C73.9139 108.538 73.422 109.014 72.8221 109.014C72.2222 109.014 71.7302 108.538 71.7302 107.938C71.7302 107.323 72.2222 106.846 72.8221 106.846C73.422 106.846 73.9139 107.323 73.9139 107.938Z" fill="#2D97BE"/>
<path d="M73.9139 107.938C73.9139 108.538 73.422 109.014 72.8221 109.014C72.2222 109.014 71.7302 108.538 71.7302 107.938C71.7302 107.323 72.2222 106.846 72.8221 106.846C73.422 106.846 73.9139 107.323 73.9139 107.938Z" stroke="#2D97BE" stroke-width="1.16161" stroke-linecap="round" stroke-linejoin="round"/>
</g>
</svg>
